<?xml version="1.0" encoding="UTF-8"?>
<svg width="16px" height="16px" viewBox="0 0 16 16" version="1.1" xmlns="http://www.w3.org/2000/svg" xmlns:xlink="http://www.w3.org/1999/xlink">
    <!-- Generator: Sketch 53.2 (72643) - https://sketchapp.com -->
    <title>icon_flag_outline</title>
    <desc>Created with Sketch.</desc>
    <defs>
        <path d="M-1.59161573e-12,9.33333299 L-1.59161573e-12,1.33333333 C-1.59161573e-12,1.15652234 0.0702378936,0.986953065 0.195262146,0.861928813 C0.34164675,0.715544208 0.60499006,0.539982002 1.00240622,0.381015539 C1.60428327,0.140264717 2.37573921,0 3.33333333,0 C4.27770894,0 4.92175326,0.184012662 6.24759378,0.714348873 C7.42175326,1.18401266 7.94437561,1.33333333 8.66666667,1.33333333 C9.45907255,1.33333333 10.0626166,1.22359805 10.5024062,1.04768221 C10.7299901,0.956648668 10.8416467,0.882210875 10.8619288,0.861928813 C11.2819054,0.441952238 12,0.739396766 12,1.33333333 L12,9.33333333 C12,9.51014433 11.9297621,9.6797136 11.8047379,9.80473785 C11.6583533,9.95112246 11.3950099,10.1266847 10.9975938,10.2856511 C10.3957167,10.526402 9.62426079,10.6666667 8.66666667,10.6666667 C7.72229106,10.6666667 7.07824674,10.482654 5.75240622,9.95231779 C4.57824674,9.482654 4.05562439,9.33333333 3.33333333,9.33333333 C2.54092745,9.33333333 1.93738339,9.44306862 1.49759378,9.61898446 C1.43395458,9.64444014 1.37938005,9.66859815 1.33333333,9.69063725 L1.33333333,14 C1.33333333,14.3681898 1.0348565,14.6666667 0.666666667,14.6666667 C0.298476833,14.6666667 -1.59161573e-12,14.3681898 -1.59161573e-12,14 L-1.59161573e-12,9.33333333 Z M3.33333333,8 C4.27770894,8 4.92175326,8.18401266 6.24759378,8.71434887 C7.42175326,9.18401266 7.94437561,9.33333333 8.66666667,9.33333333 C9.45907255,9.33333333 10.0626166,9.22359805 10.5024062,9.04768221 C10.5660454,9.02222653 10.62062,8.99806851 10.6666667,8.97602942 L10.6666667,2.40237533 C10.1205957,2.5711142 9.4570326,2.66666667 8.66666667,2.66666667 C7.72229106,2.66666667 7.07824674,2.482654 5.75240622,1.95231779 C4.57824674,1.482654 4.05562439,1.33333333 3.33333333,1.33333333 C2.54092745,1.33333333 1.93738339,1.44306862 1.49759378,1.61898446 C1.43395458,1.64444014 1.37938005,1.66859815 1.33333333,1.69063725 L1.33333333,8.26429133 C1.8794043,8.09555247 2.5429674,8 3.33333333,8 Z" id="path-1"></path>
    </defs>
    <g id="icon_flag_outline" stroke="none" stroke-width="1" fill="none" fill-rule="evenodd">
        <g id="flag" transform="translate(8.000000, 8.500000) rotate(-360.000000) translate(-8.000000, -8.500000) translate(2.000000, 1.000000)">
            <mask id="mask-2" fill="white">
                <use xlink:href="#path-1"></use>
            </mask>
            <use id="Combined-Shape" fill="#FFFFFF" fill-rule="nonzero" xlink:href="#path-1"></use>
        </g>
    </g>
</svg>